<svg width="159" height="95" viewBox="0 0 159 95" fill="none" xmlns="http://www.w3.org/2000/svg">
<path d="M116.005 45H103.091C102.593 45.0005 102.102 45.1211 101.66 45.3514C101.219 45.5817 100.839 45.915 100.554 46.3229C100.27 46.7307 100.088 47.2012 100.025 47.6941C99.9618 48.187 100.019 48.6878 100.192 49.154L103.31 57.5592C103.491 58.014 103.777 58.4198 104.144 58.7438C104.512 59.0678 104.951 59.3008 105.425 59.4239C105.9 59.547 106.397 59.5566 106.877 59.4521C107.356 59.3476 107.804 59.1319 108.183 58.8224L117.93 50.4172C118.401 50.0112 118.738 49.4729 118.897 48.8727C119.056 48.2726 119.03 47.6385 118.822 47.0533C118.614 46.4682 118.234 45.9592 117.732 45.5928C117.229 45.2265 116.627 45.0199 116.005 45Z" fill="#CE2033" stroke="#231F20" stroke-width="0.974767" stroke-miterlimit="10"/>
<path d="M90.6979 16L93.1975 24.2489L101.421 26.8906L94.3223 31.8001L94.3473 40.4229L87.4734 35.2143L79.2497 37.9058L82.0992 29.7566L77 22.8035L85.6486 22.978L90.6979 16Z" fill="#F9BF35" stroke="#231F20" stroke-miterlimit="10"/>
<path d="M129.097 10L130.047 21.4887L140.07 27.2206L129.422 31.6815L127.047 42.946L119.498 34.2235L108 35.4446L113.999 25.6007L109.275 15.0839L120.523 17.7505L129.097 10Z" fill="#F9BF35" stroke="#231F20" stroke-miterlimit="10"/>
<path d="M60.0406 60.9855L100.484 45.9829L105.583 59.6647L64.6398 74.8418L60.0406 60.9855Z" fill="#5AC3D4" stroke="#231F20" stroke-miterlimit="10"/>
<path d="M145.097 52.1713L142.972 60.5449L148.696 66.9995L140.072 67.5976L135.648 74.9992L132.424 66.9995L124 65.1055L130.624 59.5729L129.824 51L137.148 55.5855L145.097 52.1713Z" fill="#F9BF35" stroke="#231F20" stroke-miterlimit="10"/>
<path d="M9.98309 79.2106L2.80867 81.5513C1.6016 81.9451 0.943254 83.24 1.33825 84.4435L3.686 91.5965C4.081 92.7999 5.37976 93.4562 6.58683 93.0624L13.7612 90.7217C14.9683 90.3279 15.6266 89.0331 15.2316 87.8296L12.8838 80.6766C12.4889 79.4732 11.1902 78.8168 9.98309 79.2106Z" fill="#5AC3D4" stroke="#231F20" stroke-miterlimit="10"/>
<path d="M56.6711 59.1108L9.20226 74.5543C7.9957 74.9469 7.33681 76.2403 7.73053 77.4432L12.713 92.6664C13.1067 93.8693 14.4039 94.5263 15.6105 94.1338L63.0793 78.6903C64.2859 78.2977 64.9448 77.0044 64.5511 75.8014L59.5686 60.5782C59.1749 59.3753 57.8776 58.7183 56.6711 59.1108Z" fill="#5AC3D4" stroke="#231F20" stroke-width="0.9993" stroke-miterlimit="10"/>
<path d="M23.2566 70.367L21.1652 64.8416C21.0525 64.5758 20.9963 64.2896 21.0002 64.0011C21.0041 63.7126 21.068 63.428 21.188 63.1654C21.3079 62.9028 21.4811 62.6678 21.6968 62.4754C21.9125 62.283 22.1658 62.1373 22.4409 62.0476L41.472 55" stroke="#231F20" stroke-width="2" stroke-miterlimit="10"/>
</svg>
