<svg width="95" height="88" viewBox="0 0 95 88" fill="none" xmlns="http://www.w3.org/2000/svg">
<g clip-path="url(#clip0_10_2630)">
<path d="M59.2516 50.118L90.1822 69.6734" stroke="#231F20" stroke-width="1.67283" stroke-miterlimit="10"/>
<path d="M84.1266 74.9093C89.134 74.9093 93.1933 70.85 93.1933 65.8426C93.1933 60.8351 89.134 56.7758 84.1266 56.7758C79.1192 56.7758 75.0599 60.8351 75.0599 65.8426C75.0599 70.85 79.1192 74.9093 84.1266 74.9093Z" fill="#5AC3D4" stroke="#231F20" stroke-width="1.67283" stroke-miterlimit="10"/>
<path d="M47.5586 53.497L35.2967 84.3273" stroke="#231F20" stroke-width="1.67283" stroke-miterlimit="10"/>
<path d="M37.4546 86.6358C41.723 86.6358 45.1831 83.1757 45.1831 78.9074C45.1831 74.639 41.723 71.1789 37.4546 71.1789C33.1863 71.1789 29.7262 74.639 29.7262 78.9074C29.7262 83.1757 33.1863 86.6358 37.4546 86.6358Z" fill="#5AC3D4" stroke="#231F20" stroke-width="1.67283" stroke-miterlimit="10"/>
<path d="M6.79169 34.4436L36.0997 43.9787" stroke="#231F20" stroke-width="1.67283" stroke-miterlimit="10"/>
<path d="M49.6496 44.9991L45.4508 7.37714" stroke="#231F20" stroke-width="1.67283" stroke-miterlimit="10"/>
<path d="M59.2516 43.5103L88.4425 22.8342" stroke="#231F20" stroke-width="1.67283" stroke-miterlimit="10"/>
<path d="M49.6496 59.3688C57.5857 59.3688 64.0192 52.9353 64.0192 44.9992C64.0192 37.0631 57.5857 30.6296 49.6496 30.6296C41.7135 30.6296 35.28 37.0631 35.28 44.9992C35.28 52.9353 41.7135 59.3688 49.6496 59.3688Z" fill="#5AC3D4" stroke="#231F20" stroke-width="1.67283" stroke-miterlimit="10"/>
<path d="M86.4351 33.122C90.7034 33.122 94.1636 29.6618 94.1636 25.3935C94.1636 21.1252 90.7034 17.665 86.4351 17.665C82.1668 17.665 78.7066 21.1252 78.7066 25.3935C78.7066 29.6618 82.1668 33.122 86.4351 33.122Z" fill="#5AC3D4" stroke="#231F20" stroke-width="1.67283" stroke-miterlimit="10"/>
<path d="M9.90316 43.5102C14.9106 43.5102 18.9699 39.4509 18.9699 34.4435C18.9699 29.4361 14.9106 25.3768 9.90316 25.3768C4.89574 25.3768 0.836426 29.4361 0.836426 34.4435C0.836426 39.4509 4.89574 43.5102 9.90316 43.5102Z" fill="#5AC3D4" stroke="#231F20" stroke-width="1.67283" stroke-miterlimit="10"/>
<path d="M45.4508 13.918C49.0631 13.918 51.9915 10.9896 51.9915 7.37719C51.9915 3.76483 49.0631 0.836426 45.4508 0.836426C41.8384 0.836426 38.91 3.76483 38.91 7.37719C38.91 10.9896 41.8384 13.918 45.4508 13.918Z" fill="#5AC3D4" stroke="#231F20" stroke-width="1.67283" stroke-miterlimit="10"/>
</g>
<defs>
<clipPath id="clip0_10_2630">
<rect width="95" height="87.4723" fill="white"/>
</clipPath>
</defs>
</svg>
