<svg width="54" height="54" viewBox="0 0 54 54" fill="none" xmlns="http://www.w3.org/2000/svg">
<path d="M27 54C41.9117 54 54 41.9117 54 27C54 12.0883 41.9117 0 27 0C12.0883 0 0 12.0883 0 27C0 41.9117 12.0883 54 27 54Z" fill="#5AC3D4"/>
<path d="M29.1585 34.7098C39.7207 31.7568 47.3172 25.9079 46.1256 21.6459C44.9341 17.3839 35.4057 16.3228 24.8434 19.2758C14.2812 22.2289 6.6847 28.0777 7.87627 32.3397C9.06784 36.6017 18.5962 37.6628 29.1585 34.7098Z" fill="#F9BF35" stroke="#5AC3D4" stroke-width="0.435484" stroke-miterlimit="10"/>
<path d="M14.4842 10.0553L22.2445 10.8436L21.8918 26.1465L29.6782 25.4453L29.896 11.2834L37.6999 12.1152L39.9818 42.1069L29.3691 43.949L29.5868 30.2226L21.7829 30.9673L21.5652 41.3187L14.0444 43.8619L14.4842 10.0553Z" fill="#CE2033"/>
</svg>
