<svg width="118" height="20" viewBox="0 0 118 20" fill="none" xmlns="http://www.w3.org/2000/svg">
<g clip-path="url(#clip0_2_850)">
<path d="M0.234586 0.337189L4.67036 0.779758L4.45709 9.39937L8.89287 8.99894L9.02082 1.03266L13.4566 1.49631L14.7575 18.3562L8.72226 19.3888L8.8289 11.6544L4.39312 12.0759L4.26517 17.9136L0 19.3256L0.234586 0.337189Z" fill="#231F20"/>
<path d="M16.0583 2.80294L16.3783 0.0842896L29.6856 0.73762L29.3657 3.45627L22.3282 3.09799L22.2002 9.29399L26.2521 8.9568L26.0815 11.6544L22.1362 12.0126V16.4594L29.3443 16.1012L29.1951 18.7777L17.6791 19.431L16.3996 3.79346L20.8354 3.03477L16.0583 2.80294Z" fill="#231F20"/>
<path d="M31.0504 2.80293L31.3703 0.0842768C35.8939 -0.0470795 40.3728 0.99952 44.3578 3.11906C45.0797 3.50229 45.696 4.05393 46.1531 4.72605C46.6102 5.39817 46.8944 6.17044 46.9808 6.97575C46.9808 8.51421 45.9359 9.86301 43.8673 11.0643C43.0441 11.5149 42.1802 11.8889 41.2868 12.1812L48.0045 17.0706L42.0546 19.431L37.0856 14.8366V19.0516L32.6712 19.5153L31.3916 3.87775L35.0384 3.2455C33.7223 2.99837 32.3892 2.85042 31.0504 2.80293ZM37.171 10.2002C37.9172 10.0582 38.622 9.75382 39.2343 9.30909C39.8467 8.86436 40.3511 8.29046 40.711 7.62907C40.776 7.40979 40.8119 7.18309 40.8177 6.95467C40.8177 5.92201 40.0499 5.01579 38.4718 4.23602C38.0897 4.0543 37.6982 3.89251 37.2989 3.75131L37.171 10.2002Z" fill="#231F20"/>
<path d="M56.6414 20C55.3564 20.0471 54.0824 19.7486 52.9557 19.1361C51.8289 18.5237 50.8916 17.6204 50.2437 16.5227C49.0161 14.548 48.3939 12.2641 48.4523 9.94732C48.3919 7.45677 49.1391 5.01242 50.5849 2.97156C51.2233 2.04645 52.0828 1.29127 53.0872 0.772927C54.0916 0.254588 55.2098 -0.0108907 56.3429 1.87496e-05C57.6258 -0.0161951 58.8929 0.281228 60.0314 0.865847C61.1699 1.45046 62.1445 2.30414 62.8686 3.35091C64.3576 5.35863 65.1774 7.7745 65.2144 10.2634V10.685C65.3204 13.1247 64.4988 15.5154 62.9112 17.3867C62.1287 18.2558 61.1598 18.9414 60.0751 19.3935C58.9905 19.8456 57.8174 20.0528 56.6414 20ZM56.4495 16.1855C57.4945 16.1855 58.3688 15.3425 59.0513 13.6565C59.6455 12.1086 59.942 10.4647 59.9256 8.80929C60.0193 7.9681 59.937 7.11684 59.6839 6.30838C59.4308 5.49992 59.0122 4.7515 58.4541 4.1096C58.0303 3.74019 57.4838 3.53768 56.9187 3.54059C55.5751 3.54059 54.5515 4.44679 53.8691 6.25923C53.401 7.54286 53.1698 8.89911 53.1866 10.2634C53.0566 12.0102 53.5302 13.7489 54.5302 15.195C54.7497 15.4966 55.0376 15.7432 55.3709 15.9152C55.7042 16.0872 56.0736 16.1798 56.4495 16.1855Z" fill="#231F20"/>
<path d="M66.4513 2.80294L66.7712 0.084282C71.1775 0.0398686 75.4824 1.39147 79.0549 3.94098C80.0004 4.65926 80.7805 5.56824 81.343 6.60749C81.9056 7.64673 82.2379 8.79241 82.3177 9.96838C82.2931 11.109 82.0033 12.2287 81.4708 13.241C80.9383 14.2532 80.1774 15.1309 79.2468 15.8061C77.2279 17.3318 74.8766 18.371 72.3799 18.8409V18.9673L70.9084 19.1149C69.8421 19.2624 68.7758 19.3677 67.9654 19.431L66.6859 3.79345L69.6075 3.26658C68.5741 3.00634 67.5166 2.85098 66.4513 2.80294ZM72.4439 15.7007C73.2953 15.3599 74.0567 14.8316 74.6702 14.1559C75.2837 13.4803 75.733 12.6752 75.9839 11.8019C76.1188 11.3428 76.1905 10.8679 76.1972 10.3899C76.1878 9.45958 75.9708 8.54279 75.5616 7.70491C75.1524 6.86704 74.5612 6.12874 73.83 5.54267C73.4616 5.21948 73.0696 4.92363 72.6571 4.65753L72.4439 15.7007Z" fill="#231F20"/>
<path d="M93.5351 0.906214L99.9329 18.4826L93.8976 19.5153L92.9593 15.8483L88.6941 15.1317L87.2013 19.3467L82.9362 17.9347L89.078 0.442566L93.5351 0.906214ZM91.0826 8.1138L89.5898 12.4552L92.3409 12.9399L91.0826 8.1138Z" fill="#231F20"/>
<path d="M108.57 20C107.285 20.0471 106.011 19.7486 104.884 19.1361C103.757 18.5237 102.82 17.6204 102.172 16.5227C100.951 14.5462 100.336 12.2622 100.402 9.94732C100.342 7.45677 101.089 5.01242 102.535 2.97156C103.167 2.04543 104.022 1.28904 105.023 0.770371C106.025 0.251696 107.141 -0.013013 108.271 1.87496e-05C109.554 -0.0161951 110.821 0.281228 111.96 0.865847C113.098 1.45046 114.073 2.30414 114.797 3.35091C116.286 5.35863 117.106 7.7745 117.143 10.2634V10.685C117.249 13.1247 116.427 15.5154 114.84 17.3867C114.057 18.2558 113.088 18.9414 112.004 19.3935C110.919 19.8456 109.746 20.0528 108.57 20ZM108.378 16.1855C109.423 16.1855 110.297 15.3425 110.98 13.6565C111.574 12.1086 111.87 10.4647 111.854 8.80929C111.948 7.9681 111.865 7.11684 111.612 6.30838C111.359 5.49992 110.941 4.7515 110.383 4.1096C109.961 3.73669 109.413 3.53365 108.847 3.54059C107.504 3.54059 106.48 4.44679 105.797 6.25923C105.337 7.54417 105.113 8.90038 105.136 10.2634C105 12.0077 105.466 13.7462 106.459 15.195C106.69 15.5043 106.993 15.7553 107.341 15.9274C107.689 16.0996 108.074 16.188 108.463 16.1855H108.378Z" fill="#231F20"/>
</g>
<defs>
<clipPath id="clip0_2_850">
<rect width="117.143" height="20" fill="white"/>
</clipPath>
</defs>
</svg>
