<svg width="275" height="55" viewBox="0 0 275 55" fill="none" xmlns="http://www.w3.org/2000/svg">
<path d="M0 13C0 8.58172 3.58172 5 8 5H260C264.418 5 268 8.58172 268 13V47C268 51.4183 264.418 55 260 55H7.99999C3.58172 55 0 51.4183 0 47V13Z" fill="#231F20"/>
<path d="M7.5 8C7.5 3.85787 10.8579 0.5 15 0.5H267C271.142 0.5 274.5 3.85786 274.5 8V42C274.5 46.1421 271.142 49.5 267 49.5H15C10.8579 49.5 7.5 46.1421 7.5 42V8Z" fill="#F9BF35" stroke="black"/>
<path d="M35.6654 29.5665C35.6654 30.1834 35.5942 30.8319 35.4519 31.5121C35.3253 32.1923 35.0802 32.825 34.7163 33.4103C34.3525 33.9955 33.8384 34.478 33.1741 34.8576C32.5097 35.2373 31.6555 35.4271 30.6115 35.4271C29.2512 35.4271 28.1597 35.087 27.3372 34.4068C26.5304 33.7266 25.9768 32.8329 25.6762 31.7256L28.4286 30.9426C28.571 31.4963 28.832 31.9392 29.2116 32.2714C29.5912 32.5877 30.0421 32.7459 30.5641 32.7459C30.9912 32.7459 31.3392 32.6668 31.6081 32.5086C31.8928 32.3505 32.1063 32.129 32.2487 31.8443C32.4069 31.5437 32.5176 31.1957 32.5809 30.8003C32.6442 30.389 32.6758 29.9461 32.6758 29.4715V18.2011H35.6654V29.5665ZM38.4189 26.5531C38.4189 25.2085 38.6404 23.9985 39.0833 22.9228C39.542 21.8314 40.1668 20.906 40.9577 20.1467C41.7645 19.3875 42.7135 18.8022 43.805 18.3909C44.9123 17.9796 46.1145 17.774 47.4115 17.774C48.7245 17.774 49.9345 17.9796 51.0418 18.3909C52.1491 18.8022 53.1061 19.3875 53.9128 20.1467C54.7195 20.906 55.3444 21.8314 55.7873 22.9228C56.246 23.9985 56.4754 25.2085 56.4754 26.5531C56.4754 27.866 56.246 29.0682 55.7873 30.1596C55.3444 31.2353 54.7195 32.1685 53.9128 32.9595C53.1061 33.7345 52.1491 34.3435 51.0418 34.7865C49.9345 35.2135 48.7245 35.4271 47.4115 35.4271C46.1145 35.4271 44.9123 35.2135 43.805 34.7865C42.7135 34.3435 41.7645 33.7345 40.9577 32.9595C40.1668 32.1685 39.542 31.2353 39.0833 30.1596C38.6404 29.0682 38.4189 27.866 38.4189 26.5531ZM41.6695 26.5531C41.6695 27.4547 41.804 28.2852 42.0729 29.0445C42.3576 29.7879 42.7531 30.4365 43.2593 30.9901C43.7813 31.5437 44.3903 31.9787 45.0863 32.2951C45.7981 32.5956 46.5811 32.7459 47.4353 32.7459C48.2895 32.7459 49.0725 32.5956 49.7843 32.2951C50.4961 31.9787 51.1051 31.5437 51.6113 30.9901C52.1333 30.4365 52.5287 29.7879 52.7976 29.0445C53.0824 28.2852 53.2247 27.4547 53.2247 26.5531C53.2247 25.6831 53.0824 24.8764 52.7976 24.1329C52.5287 23.3895 52.1412 22.7409 51.635 22.1873C51.1288 21.6336 50.5198 21.1986 49.808 20.8823C49.0962 20.5659 48.3053 20.4077 47.4353 20.4077C46.5653 20.4077 45.7744 20.5659 45.0625 20.8823C44.3665 21.1986 43.7655 21.6336 43.2593 22.1873C42.7531 22.7409 42.3576 23.3895 42.0729 24.1329C41.804 24.8764 41.6695 25.6831 41.6695 26.5531ZM59.3614 18.2011H62.351V35H59.3614V18.2011ZM66.0578 18.2011H70.0203L77.8266 30.7765H77.874V18.2011H80.8637V35H77.0673L69.0949 22.0212H69.0475V35H66.0578V18.2011ZM89.6967 26.5531C89.6967 25.2085 89.9181 23.9985 90.3611 22.9228C90.8198 21.8314 91.4446 20.906 92.2355 20.1467C93.0422 19.3875 93.9913 18.8022 95.0828 18.3909C96.1901 17.9796 97.3922 17.774 98.6893 17.774C100.002 17.774 101.212 17.9796 102.32 18.3909C103.427 18.8022 104.384 19.3875 105.191 20.1467C105.997 20.906 106.622 21.8314 107.065 22.9228C107.524 23.9985 107.753 25.2085 107.753 26.5531C107.753 27.866 107.524 29.0682 107.065 30.1596C106.622 31.2353 105.997 32.1685 105.191 32.9595C104.384 33.7345 103.427 34.3435 102.32 34.7865C101.212 35.2135 100.002 35.4271 98.6893 35.4271C97.3922 35.4271 96.1901 35.2135 95.0828 34.7865C93.9913 34.3435 93.0422 33.7345 92.2355 32.9595C91.4446 32.1685 90.8198 31.2353 90.3611 30.1596C89.9181 29.0682 89.6967 27.866 89.6967 26.5531ZM92.9473 26.5531C92.9473 27.4547 93.0818 28.2852 93.3507 29.0445C93.6354 29.7879 94.0309 30.4365 94.5371 30.9901C95.0591 31.5437 95.6681 31.9787 96.3641 32.2951C97.0759 32.5956 97.8589 32.7459 98.7131 32.7459C99.5672 32.7459 100.35 32.5956 101.062 32.2951C101.774 31.9787 102.383 31.5437 102.889 30.9901C103.411 30.4365 103.807 29.7879 104.075 29.0445C104.36 28.2852 104.503 27.4547 104.503 26.5531C104.503 25.6831 104.36 24.8764 104.075 24.1329C103.807 23.3895 103.419 22.7409 102.913 22.1873C102.407 21.6336 101.798 21.1986 101.086 20.8823C100.374 20.5659 99.5831 20.4077 98.7131 20.4077C97.8431 20.4077 97.0521 20.5659 96.3403 20.8823C95.6443 21.1986 95.0432 21.6336 94.5371 22.1873C94.0309 22.7409 93.6354 23.3895 93.3507 24.1329C93.0818 24.8764 92.9473 25.6831 92.9473 26.5531ZM124.021 28.8309C124.021 29.8433 123.847 30.7607 123.499 31.5833C123.151 32.39 122.677 33.0781 122.076 33.6475C121.475 34.217 120.763 34.6599 119.94 34.9763C119.118 35.2768 118.224 35.4271 117.259 35.4271C116.294 35.4271 115.4 35.2768 114.578 34.9763C113.755 34.6599 113.036 34.217 112.419 33.6475C111.818 33.0781 111.343 32.39 110.995 31.5833C110.663 30.7607 110.497 29.8433 110.497 28.8309V18.2011H113.486V28.7123C113.486 29.2026 113.55 29.693 113.676 30.1834C113.803 30.6579 114.008 31.085 114.293 31.4646C114.594 31.8443 114.981 32.1527 115.456 32.39C115.946 32.6273 116.547 32.7459 117.259 32.7459C117.971 32.7459 118.564 32.6273 119.039 32.39C119.529 32.1527 119.917 31.8443 120.201 31.4646C120.502 31.085 120.715 30.6579 120.842 30.1834C120.968 29.693 121.032 29.2026 121.032 28.7123V18.2011H124.021V28.8309ZM127.577 18.2011H133.414C134.205 18.2011 134.972 18.2881 135.716 18.4621C136.459 18.6203 137.116 18.8892 137.685 19.2688C138.27 19.6485 138.737 20.1467 139.085 20.7636C139.433 21.3805 139.607 22.1319 139.607 23.0177C139.607 24.2357 139.259 25.2323 138.563 26.0074C137.883 26.7666 136.95 27.2807 135.763 27.5496L140.248 35H136.641L132.75 27.8818H130.567V35H127.577V18.2011ZM133.011 25.4379C133.438 25.4379 133.865 25.4063 134.292 25.343C134.719 25.2797 135.099 25.1611 135.431 24.9871C135.779 24.8131 136.064 24.5679 136.285 24.2515C136.507 23.9194 136.617 23.5002 136.617 22.994C136.617 22.5353 136.515 22.1635 136.309 21.8788C136.103 21.5783 135.842 21.341 135.526 21.167C135.21 20.993 134.846 20.8744 134.434 20.8111C134.039 20.7478 133.651 20.7162 133.272 20.7162H130.567V25.4379H133.011ZM148.431 18.2011H154.387C155.478 18.2011 156.578 18.3435 157.685 18.6282C158.792 18.9129 159.789 19.3875 160.675 20.0518C161.56 20.7004 162.28 21.5625 162.834 22.6381C163.387 23.6979 163.664 25.0187 163.664 26.6005C163.664 28.0716 163.387 29.3371 162.834 30.3969C162.28 31.4567 161.56 32.3267 160.675 33.0069C159.789 33.6871 158.792 34.1933 157.685 34.5255C156.578 34.8418 155.478 35 154.387 35H148.431V18.2011ZM153.912 32.39C154.687 32.39 155.463 32.303 156.238 32.129C157.013 31.9392 157.709 31.6307 158.326 31.2036C158.958 30.7607 159.472 30.1675 159.868 29.4241C160.263 28.6806 160.461 27.7395 160.461 26.6005C160.461 25.3984 160.263 24.4176 159.868 23.6584C159.472 22.8991 158.958 22.3059 158.326 21.8788C157.709 21.4517 157.013 21.1591 156.238 21.0009C155.463 20.8427 154.687 20.7636 153.912 20.7636H151.421V32.39H153.912ZM166.551 18.2011H169.541V35H166.551V18.2011ZM181.813 21.7127C181.497 21.3015 181.046 20.9614 180.461 20.6925C179.891 20.4077 179.314 20.2654 178.729 20.2654C178.381 20.2654 178.033 20.3128 177.685 20.4077C177.337 20.4868 177.02 20.6213 176.736 20.8111C176.451 20.9851 176.214 21.2224 176.024 21.5229C175.85 21.8076 175.763 22.1556 175.763 22.5669C175.763 22.9465 175.842 23.2708 176 23.5397C176.158 23.8086 176.372 24.038 176.641 24.2278C176.925 24.4176 177.265 24.5837 177.661 24.7261C178.056 24.8685 178.491 25.0108 178.966 25.1532C179.504 25.3272 180.057 25.5249 180.627 25.7464C181.212 25.9678 181.742 26.2605 182.217 26.6243C182.707 26.9881 183.102 27.4468 183.403 28.0005C183.719 28.5541 183.877 29.2422 183.877 30.0647C183.877 30.9664 183.711 31.7573 183.379 32.4375C183.047 33.1018 182.604 33.6555 182.05 34.0984C181.497 34.5413 180.848 34.8735 180.105 35.0949C179.361 35.3164 178.578 35.4271 177.756 35.4271C176.664 35.4271 175.597 35.2294 174.553 34.8339C173.509 34.4226 172.654 33.8215 171.99 33.0306L174.126 31.0375C174.537 31.607 175.083 32.0578 175.763 32.39C176.459 32.7222 177.139 32.8883 177.803 32.8883C178.151 32.8883 178.507 32.8487 178.871 32.7696C179.235 32.6747 179.559 32.5245 179.844 32.3188C180.144 32.1132 180.382 31.8601 180.556 31.5595C180.745 31.2432 180.84 30.8556 180.84 30.3969C180.84 29.954 180.738 29.5902 180.532 29.3055C180.326 29.0049 180.049 28.7518 179.701 28.5462C179.353 28.3247 178.942 28.1349 178.468 27.9767C177.993 27.8185 177.495 27.6525 176.973 27.4785C176.467 27.3203 175.96 27.1305 175.454 26.909C174.948 26.6875 174.489 26.3949 174.078 26.0311C173.683 25.6673 173.358 25.2244 173.105 24.7024C172.852 24.1645 172.726 23.5002 172.726 22.7093C172.726 21.8551 172.9 21.1195 173.248 20.5026C173.611 19.8857 174.078 19.3795 174.648 18.9841C175.233 18.5728 175.889 18.2723 176.617 18.0825C177.36 17.8768 178.112 17.774 178.871 17.774C179.725 17.774 180.587 17.9243 181.457 18.2248C182.343 18.5254 183.11 18.9762 183.759 19.5773L181.813 21.7127ZM198.997 22.1398C198.554 21.5387 197.977 21.1037 197.265 20.8348C196.553 20.5501 195.857 20.4077 195.177 20.4077C194.307 20.4077 193.516 20.5659 192.804 20.8823C192.092 21.1986 191.475 21.6336 190.953 22.1873C190.447 22.7409 190.052 23.3895 189.767 24.1329C189.498 24.8764 189.364 25.6831 189.364 26.5531C189.364 27.4705 189.498 28.3089 189.767 29.0682C190.036 29.8275 190.416 30.4839 190.906 31.0375C191.412 31.5754 192.013 31.9945 192.709 32.2951C193.405 32.5956 194.188 32.7459 195.058 32.7459C195.96 32.7459 196.759 32.5719 197.455 32.2239C198.151 31.8601 198.712 31.3855 199.139 30.8003L201.536 32.4849C200.792 33.4182 199.883 34.1458 198.807 34.6678C197.731 35.174 196.474 35.4271 195.034 35.4271C193.722 35.4271 192.511 35.2135 191.404 34.7865C190.313 34.3435 189.372 33.7345 188.581 32.9595C187.79 32.1685 187.173 31.2353 186.73 30.1596C186.287 29.0682 186.066 27.866 186.066 26.5531C186.066 25.2085 186.295 23.9985 186.754 22.9228C187.228 21.8314 187.869 20.906 188.676 20.1467C189.498 19.3875 190.463 18.8022 191.57 18.3909C192.678 17.9796 193.88 17.774 195.177 17.774C195.715 17.774 196.276 17.8294 196.861 17.9401C197.447 18.035 198.008 18.1932 198.546 18.4146C199.084 18.6203 199.59 18.8813 200.065 19.1976C200.539 19.514 200.943 19.8936 201.275 20.3365L198.997 22.1398ZM202.309 26.5531C202.309 25.2085 202.53 23.9985 202.973 22.9228C203.432 21.8314 204.056 20.906 204.847 20.1467C205.654 19.3875 206.603 18.8022 207.695 18.3909C208.802 17.9796 210.004 17.774 211.301 17.774C212.614 17.774 213.824 17.9796 214.931 18.3909C216.039 18.8022 216.996 19.3875 217.802 20.1467C218.609 20.906 219.234 21.8314 219.677 22.9228C220.136 23.9985 220.365 25.2085 220.365 26.5531C220.365 27.866 220.136 29.0682 219.677 30.1596C219.234 31.2353 218.609 32.1685 217.802 32.9595C216.996 33.7345 216.039 34.3435 214.931 34.7865C213.824 35.2135 212.614 35.4271 211.301 35.4271C210.004 35.4271 208.802 35.2135 207.695 34.7865C206.603 34.3435 205.654 33.7345 204.847 32.9595C204.056 32.1685 203.432 31.2353 202.973 30.1596C202.53 29.0682 202.309 27.866 202.309 26.5531ZM205.559 26.5531C205.559 27.4547 205.694 28.2852 205.963 29.0445C206.247 29.7879 206.643 30.4365 207.149 30.9901C207.671 31.5437 208.28 31.9787 208.976 32.2951C209.688 32.5956 210.471 32.7459 211.325 32.7459C212.179 32.7459 212.962 32.5956 213.674 32.2951C214.386 31.9787 214.995 31.5437 215.501 30.9901C216.023 30.4365 216.418 29.7879 216.687 29.0445C216.972 28.2852 217.114 27.4547 217.114 26.5531C217.114 25.6831 216.972 24.8764 216.687 24.1329C216.418 23.3895 216.031 22.7409 215.525 22.1873C215.018 21.6336 214.409 21.1986 213.698 20.8823C212.986 20.5659 212.195 20.4077 211.325 20.4077C210.455 20.4077 209.664 20.5659 208.952 20.8823C208.256 21.1986 207.655 21.6336 207.149 22.1873C206.643 22.7409 206.247 23.3895 205.963 24.1329C205.694 24.8764 205.559 25.6831 205.559 26.5531ZM223.251 18.2011H229.088C229.879 18.2011 230.646 18.2881 231.389 18.4621C232.133 18.6203 232.789 18.8892 233.359 19.2688C233.944 19.6485 234.411 20.1467 234.759 20.7636C235.107 21.3805 235.281 22.1319 235.281 23.0177C235.281 24.2357 234.933 25.2323 234.237 26.0074C233.557 26.7666 232.623 27.2807 231.437 27.5496L235.921 35H232.315L228.424 27.8818H226.241V35H223.251V18.2011ZM228.685 25.4379C229.112 25.4379 229.539 25.4063 229.966 25.343C230.393 25.2797 230.773 25.1611 231.105 24.9871C231.453 24.8131 231.737 24.5679 231.959 24.2515C232.18 23.9194 232.291 23.5002 232.291 22.994C232.291 22.5353 232.188 22.1635 231.983 21.8788C231.777 21.5783 231.516 21.341 231.2 21.167C230.883 20.993 230.519 20.8744 230.108 20.8111C229.713 20.7478 229.325 20.7162 228.946 20.7162H226.241V25.4379H228.685ZM238.173 18.2011H244.129C245.22 18.2011 246.32 18.3435 247.427 18.6282C248.534 18.9129 249.531 19.3875 250.417 20.0518C251.302 20.7004 252.022 21.5625 252.576 22.6381C253.129 23.6979 253.406 25.0187 253.406 26.6005C253.406 28.0716 253.129 29.3371 252.576 30.3969C252.022 31.4567 251.302 32.3267 250.417 33.0069C249.531 33.6871 248.534 34.1933 247.427 34.5255C246.32 34.8418 245.22 35 244.129 35H238.173V18.2011ZM243.654 32.39C244.429 32.39 245.204 32.303 245.98 32.129C246.755 31.9392 247.451 31.6307 248.068 31.2036C248.7 30.7607 249.214 30.1675 249.61 29.4241C250.005 28.6806 250.203 27.7395 250.203 26.6005C250.203 25.3984 250.005 24.4176 249.61 23.6584C249.214 22.8991 248.7 22.3059 248.068 21.8788C247.451 21.4517 246.755 21.1591 245.98 21.0009C245.204 20.8427 244.429 20.7636 243.654 20.7636H241.163V32.39H243.654Z" fill="#231F20"/>
</svg>
