<svg width="74" height="112" viewBox="0 0 74 112" fill="none" xmlns="http://www.w3.org/2000/svg">
<g clip-path="url(#clip0_6_2564)">
<path d="M26.6408 44.4502L0.816212 89.7274H73.2218L50.3963 44.8779L26.6408 44.4502Z" fill="#CE2033" stroke="#231F20" stroke-miterlimit="10"/>
<path d="M38.3809 0.475311C39.0263 0.69395 39.6717 0.884071 40.2791 1.14073C42.2942 1.96974 43.9479 3.49173 44.9426 5.43294C45.9374 7.37415 46.2079 9.60716 45.7056 11.7303C45.2033 13.8535 43.9611 15.7275 42.2024 17.0152C40.4438 18.3029 38.2841 18.9198 36.1118 18.755C33.9396 18.5902 31.8973 17.6544 30.3524 16.116C28.8075 14.5776 27.8614 12.5376 27.6841 10.3629C27.5069 8.18815 28.1102 6.02144 29.3856 4.25249C30.661 2.48354 32.5247 1.22844 34.6415 0.712962C34.8788 0.655926 35.1066 0.551359 35.3344 0.475311H38.3809Z" fill="#5AC3D4" stroke="#231F20" stroke-miterlimit="10"/>
<path d="M37.9348 63.5953H35.7614V64.9737C35.7614 78.561 35.7614 92.1451 35.7614 105.726C35.8474 106.981 35.492 108.226 34.7569 109.245C34.0217 110.264 32.9534 110.994 31.7373 111.306C31.0216 111.496 30.2739 111.533 29.543 111.414C28.8121 111.295 28.1145 111.023 27.4957 110.616C26.8769 110.208 26.3507 109.675 25.9516 109.05C25.5524 108.426 25.2892 107.724 25.1792 106.99C25.0987 106.344 25.0606 105.693 25.0653 105.042C25.0653 88.6088 25.0653 72.1698 25.0653 55.7243C25.1318 55.2937 25.0407 54.8536 24.8087 54.485C24.5768 54.1164 24.2196 53.8442 23.803 53.7186C20.0921 52.1406 16.4381 50.439 12.7652 48.7754C10.0223 47.5302 9.08271 45.2582 10.2026 42.4825C12.1008 37.6724 14.0559 32.8433 16.068 28.0618C17.9661 23.613 21.3259 21.1414 26.1757 21.0654C33.2116 20.9703 40.2443 20.9703 47.2738 21.0654C52.0192 21.1319 55.417 23.5559 57.2772 27.9002C59.3746 32.7958 61.3297 37.7675 63.3038 42.7201C63.5504 43.247 63.6892 43.818 63.7121 44.3995C63.735 44.9809 63.6416 45.5611 63.4373 46.1058C63.233 46.6506 62.922 47.1489 62.5226 47.5714C62.1231 47.994 61.6434 48.3322 61.1115 48.5663C57.3151 50.5309 53.4903 52.4638 49.637 54.365C49.2756 54.4884 48.9673 54.7322 48.7636 55.0556C48.5598 55.3791 48.4728 55.7627 48.5171 56.1426C48.5171 72.6546 48.5171 89.1665 48.5171 105.679C48.5892 106.638 48.4048 107.598 47.9827 108.462C47.5607 109.326 46.9163 110.062 46.1159 110.593C45.3456 111.142 44.4356 111.461 43.4916 111.513C42.5475 111.566 41.6081 111.349 40.7821 110.888C39.9121 110.474 39.1778 109.821 38.6652 109.004C38.1525 108.188 37.8827 107.242 37.8874 106.277C37.8874 105.84 37.8874 105.412 37.8874 104.975C37.8874 91.6666 37.8874 78.336 37.8874 64.9832L37.9348 63.5953ZM31.0445 35.7237C31.2652 36.1387 31.5225 36.5332 31.8132 36.9024C33.1704 38.3093 34.5561 39.6782 35.9418 41.047C36.7864 41.8741 37.3844 41.8646 38.2575 41.047C39.6242 39.7162 40.9719 38.3568 42.3101 36.988C43.2023 36.0374 43.2023 35.486 42.3101 34.5829C40.9688 33.2141 39.6179 31.861 38.2575 30.5239C38.125 30.3375 37.9499 30.1855 37.7468 30.0807C37.5438 29.9758 37.3186 29.9211 37.0902 29.9211C36.8617 29.9211 36.6365 29.9758 36.4335 30.0807C36.2304 30.1855 36.0553 30.3375 35.9228 30.5239C34.5276 31.8832 33.1515 33.2711 31.7943 34.6685C31.5144 34.9979 31.2636 35.3509 31.0445 35.7237ZM53.6042 42.3779L49.0676 31.2558C48.4981 32.1114 48.3083 41.9216 48.669 44.859L53.6042 42.3779ZM19.9307 42.1973L24.9039 44.4217V31.0467L24.5148 30.9516L19.9307 42.1973Z" fill="#5AC3D4" stroke="#231F20" stroke-miterlimit="10"/>
<path d="M37.0237 43.7277C41.4162 43.7277 44.977 40.1612 44.977 35.7617C44.977 31.3621 41.4162 27.7956 37.0237 27.7956C32.6312 27.7956 29.0704 31.3621 29.0704 35.7617C29.0704 40.1612 32.6312 43.7277 37.0237 43.7277Z" fill="#5AC3D4" stroke="#231F20" stroke-miterlimit="10"/>
<path d="M32.4778 31.5132L36.7321 32.7527L40.9807 31.5072L39.7479 35.7596L41.0002 40.0102L36.7459 38.7706L32.4973 40.0161L33.7301 35.7638L32.4778 31.5132Z" fill="#CE2033" stroke="#231F20" stroke-miterlimit="10"/>
</g>
<defs>
<clipPath id="clip0_6_2564">
<rect width="74" height="112" fill="white"/>
</clipPath>
</defs>
</svg>
