<svg width="82" height="77" viewBox="0 0 82 77" fill="none" xmlns="http://www.w3.org/2000/svg">
<path d="M75.3973 0.641785H6.60275C3.31158 0.641785 0.643555 3.30248 0.643555 6.58461V70.4154C0.643555 73.6975 3.31158 76.3582 6.60275 76.3582H75.3973C78.6885 76.3582 81.3565 73.6975 81.3565 70.4154V6.58461C81.3565 3.30248 78.6885 0.641785 75.3973 0.641785Z" fill="#F9BF35" stroke="#231F20" stroke-miterlimit="10"/>
<path d="M30.2207 12.014H11.9312V29.175H30.2207V12.014Z" fill="white" stroke="#231F20" stroke-miterlimit="10"/>
<path d="M30.2207 46.6826H11.9312V63.8437H30.2207V46.6826Z" fill="white" stroke="#231F20" stroke-miterlimit="10"/>
<path d="M37.9561 16.3395H72.9389" stroke="#231F20" stroke-miterlimit="10"/>
<path d="M37.9561 25.1832H72.9389" stroke="#231F20" stroke-miterlimit="10"/>
<path d="M37.9561 50.8413H72.9389" stroke="#231F20" stroke-miterlimit="10"/>
<path d="M37.9561 59.6849H72.9389" stroke="#231F20" stroke-miterlimit="10"/>
<path d="M14.8787 16.224L21.5586 23.9766L34.6997 8.71527" stroke="#231F20" stroke-width="2" stroke-miterlimit="10"/>
</svg>
